<svg height="128" viewBox="0 0 128 128" width="128" xmlns="http://www.w3.org/2000/svg">
  <defs>
    <linearGradient id="bg" x1="0" y1="0" x2="0" y2="1">
      <stop offset="0%" stop-color="#1a2e3a"/>
      <stop offset="100%" stop-color="#0f1a22"/>
    </linearGradient>
  </defs>
  <rect width="128" height="128" rx="20" fill="url(#bg)"/>
  <path d="M64 20C46.3 20 32 34.3 32 52c0 10.8 5.3 20.4 13.5 26.3V88a4 4 0 0 0 4 4h29a4 4 0 0 0 4-4v-9.7C90.7 72.4 96 62.8 96 52c0-17.7-14.3-32-32-32z" fill="#5ec4d4"/>
  <circle cx="64" cy="48" r="10" fill="#1a2e3a"/>
  <circle cx="64" cy="48" r="5" fill="#5ec4d4"/>
  <path d="M52 98h24v4a4 4 0 0 1-4 4H56a4 4 0 0 1-4-4z" fill="#5ec4d4" opacity="0.7"/>
  <path d="M49.5 92h29M49.5 96h29" stroke="#1a2e3a" stroke-width="2" stroke-linecap="round"/>
  <text x="64" y="120" text-anchor="middle" fill="#5ec4d4" font-family="sans-serif" font-size="11" font-weight="bold" opacity="0.6">GOAP</text>
</svg>